<svg xmlns="http://www.w3.org/2000/svg" viewBox="382.7 179.4 1284.0 1612.4" fill="none">
<title>Jungle Big Leaf</title>
<path fill="#349505" d="M 1024.31 195.438 C 1101.05 262.666 1175.42 332.564 1247.27 405.002 C 1279.39 437.712 1316.56 476.238 1341.69 514.757 C 1347.72 524.007 1352.16 541.826 1352.6 552.976 C 1355.62 628.979 1308.54 706.499 1259.65 761.799 C 1246.69 776.461 1233.53 789.305 1219.51 802.629 C 1209.27 812.369 1193.4 825.214 1185.58 836.33 C 1187.34 838.803 1190.59 840.123 1193.44 840.403 C 1214.64 842.485 1237.53 829.211 1253.06 816.954 C 1308.55 773.146 1352.32 694.09 1371.96 627.026 C 1377.97 605.766 1382.22 584.05 1384.68 562.095 L 1385.77 552.895 C 1397.83 563.05 1417.14 586.347 1427.04 598.792 C 1465.04 646.544 1543.82 750.674 1548.23 810.971 C 1559.32 962.611 1372.11 1050.8 1256.51 1099.33 C 1249.09 1102.55 1232.36 1109.01 1232.71 1117.57 C 1235.2 1122.58 1240.05 1124.78 1245.18 1126.37 C 1281.38 1137.62 1338.6 1115.21 1370.57 1097.55 C 1468.58 1043.38 1538.06 967.27 1584.92 867.032 C 1626.23 941.998 1653.54 1073.86 1650.5 1159.84 C 1650.03 1177.34 1648.62 1194.35 1644.24 1211.32 C 1635.43 1245.5 1608.2 1271.58 1577.6 1287.13 C 1481.91 1335.77 1366.66 1337.68 1263.53 1315.34 C 1260.58 1314.7 1258.04 1315.56 1255.85 1317.43 C 1255.24 1322.46 1258.35 1327.34 1261.4 1331.17 C 1282.6 1357.92 1331.79 1373.19 1364.02 1376.48 C 1469.1 1387.22 1565.94 1336.01 1647.19 1276.33 C 1635.41 1395.87 1576.49 1527.33 1482.09 1603.9 C 1419.38 1654.75 1338.98 1686.75 1257.51 1678.69 C 1203.22 1672.95 1153.48 1645.75 1119.36 1603.13 C 1100.04 1579.42 1080.65 1542.37 1073.81 1511.68 C 1072.9 1507.56 1072.74 1481.12 1072.66 1475.8 L 1071.71 1404.51 L 1066.68 1167.23 C 1061.72 977.521 1055.33 787.856 1047.51 598.248 C 1044.36 520.02 1040.32 441.831 1035.4 363.695 C 1032.54 320.157 1029.51 271.881 1024.04 228.747 C 1023.55 219.387 1022.28 204.306 1024.31 195.438 z"/>
<path fill="#66CB34" d="M 663.468 552.647 C 669.659 610.072 683.681 657.716 711.671 709.234 C 737.868 757.452 782.376 821.038 836.893 838.707 C 845.73 841.571 853.683 842.038 861.873 837.453 C 863.63 831.66 842.191 814.891 836.957 810.112 C 784.387 762.107 735.896 702.785 710.829 635.393 C 697.673 600.021 688.122 555.151 704.882 519.289 C 733.621 457.794 918.948 288.574 976.104 236.925 C 984.961 228.922 1016.83 198.105 1024.31 195.438 C 1022.28 204.306 1023.55 219.387 1024.04 228.747 C 1020.76 237.607 1014.63 340.45 1013.46 355.933 C 1006.43 448.74 1004.24 543.118 1000.29 636.112 C 991.154 851.809 984.167 1067.59 979.328 1283.43 C 977.979 1335.14 977.062 1386.86 976.574 1438.59 C 976.332 1455.99 976.893 1502.3 974.06 1516.35 C 967.625 1548.23 943.724 1588.9 922.085 1612.65 C 885.238 1653.54 833.373 1677.73 778.362 1679.68 C 693.701 1683.27 611.358 1642.42 550.327 1585.98 C 479.753 1520.71 434.652 1431.08 411.792 1338.52 C 407.802 1322.37 401.327 1292.21 400.616 1276.05 C 473.027 1326.79 540.336 1368.27 631.681 1377.38 C 678.416 1382.04 738.494 1371.57 775.536 1340.71 C 782.052 1335.28 790.458 1327.06 791.136 1318.28 C 790.795 1317.51 790.454 1316.73 790.113 1315.95 C 760.71 1317.9 731.643 1324.19 701.892 1327.37 C 612.815 1336.91 430.589 1311.08 405.509 1208.4 C 383.335 1117.63 418.495 949.534 463.518 867.636 C 476.582 892.814 489.383 917.065 505.61 940.618 C 553.159 1009.63 622.915 1072.58 699.011 1108.34 C 726.676 1121.34 773.352 1137.16 804.073 1126.11 C 809.163 1124.28 813.192 1121.72 815.439 1116.71 C 814.846 1109.33 803.373 1104.25 796.992 1101.31 C 711.547 1062.01 622.776 1021 558.215 950.244 C 517.347 905.456 487.868 837.256 509.849 776.522 C 536.206 709.67 584.665 644.567 630.03 589.175 C 640.096 576.903 651.86 563.066 663.468 552.647 z"/>
<path fill="#349505" d="M 998.173 1525.18 L 1049.77 1525.26 L 1073.06 1761.14 C 1064.96 1766.41 1058.18 1769.15 1049.2 1772.44 C 1048.44 1772.65 1047.67 1772.84 1046.9 1773.03 C 1021.1 1779.19 1000.6 1774.93 978.39 1761.58 C 979.331 1736.24 982.861 1708.64 984.801 1683.24 C 988.811 1630.77 994.836 1577.63 998.173 1525.18 z"/>
</svg>
