<svg xmlns="http://www.w3.org/2000/svg" viewBox="300.9 373.0 1425.8 1189.8" fill="none">
<title>Jungle Leaf Trio</title>
<path fill="#5A8500" d="M 995.387 985.522 C 931.44 947.126 882.867 888.754 864.456 815.607 C 845.721 743.557 856.726 667 894.997 603.144 C 961.63 493.026 1100.74 435.63 1220.44 405.831 C 1238.22 401.406 1318.99 383.268 1329.84 390.787 C 1348.2 403.512 1369.82 489.829 1375.2 512.388 C 1401.95 624.548 1404.1 762.091 1342.62 863.677 C 1298.21 937.046 1217.19 981.74 1135.5 999.993 C 1114.42 1004.7 1095.34 1006.88 1073.7 1008.12 C 1055.84 1084.31 1040.56 1154.77 1035.02 1233.42 C 1032.81 1273.06 1030.31 1310.69 1033.26 1350.43 C 1034.02 1360.64 1034.35 1376.16 1036.58 1385.8 C 1038.62 1413.43 1042.25 1440.93 1047.48 1468.15 C 1050.53 1484.9 1056.77 1503.12 1056.49 1520.17 C 1056.41 1525.04 1053.61 1529.13 1050.11 1532.35 C 1034.58 1546.59 1004.47 1547.31 984.741 1546.66 C 970.003 1546.17 947.371 1544.83 936.921 1532.86 C 920.077 1513.56 935.721 1339.99 939.46 1302.67 C 942.959 1261.92 951.728 1206.47 958.47 1166.09 C 967.766 1112.25 980.471 1038.06 995.387 985.522 z"/>
<path fill="#86BE17" d="M 885.339 1214.53 C 828.363 1282.35 748.985 1299.21 664.196 1287.2 C 477.166 1260.72 362.023 1084.62 319.414 914.248 C 316.336 901.938 313.556 886.608 327.088 879.659 C 435.301 823.296 563.822 791.549 685.547 813.365 C 832.708 839.136 962.568 977.174 931.166 1132.68 C 940.877 1143.8 949.227 1155.54 958.47 1166.09 C 951.728 1206.47 942.959 1261.92 939.46 1302.67 C 933.13 1278.27 901.802 1234.17 885.339 1214.53 z"/>
<path fill="#86BE17" d="M 1064.8 1199.37 C 1068.16 1133.53 1108.21 1076.06 1156.05 1033.26 C 1230.1 966.625 1322.82 923.279 1424.05 928.463 C 1509.39 932.833 1584.96 967.688 1657.14 1011.2 C 1672.34 1020.37 1702.76 1037.03 1710.7 1052.57 C 1708.74 1068.44 1702.22 1087.89 1696.17 1102.95 C 1653.64 1208.88 1579.66 1318.84 1472.29 1366.75 C 1416.32 1391.72 1334.95 1402.75 1274.26 1395.02 C 1217.62 1388.09 1164.72 1363.11 1123.39 1323.78 C 1112.72 1313.56 1104.47 1303.46 1095.07 1292.15 C 1071.24 1317.88 1050.37 1353.57 1036.58 1385.8 C 1034.35 1376.16 1034.02 1360.64 1033.26 1350.43 C 1030.31 1310.69 1032.81 1273.06 1035.02 1233.42 C 1045.33 1222.14 1053.67 1211.3 1064.8 1199.37 z"/>
</svg>
