<svg xmlns="http://www.w3.org/2000/svg" viewBox="349.4 -16.0 657.0 1521.2" fill="none">
<title>Jungle Liana Thick</title>
<path fill="#349505" d="M 659.906 0 L 718.066 0 C 716.553 69.2084 719.229 138.445 726.081 207.33 C 731.173 254.033 737.394 300.606 744.738 347.008 C 750.806 384.278 760.447 421.545 764.545 459.102 C 769.288 502.576 770.047 553.856 757.028 596.029 C 748.891 578.065 740.909 550.875 732.334 530.429 C 715.751 488.292 691.464 446.636 681.714 402.169 C 660.089 303.534 660.387 199.411 660.55 99.3506 L 659.906 0 z"/>
<path fill="#66CB34" d="M 650.835 594.156 C 639.721 539.537 636.782 495.761 650.36 440.586 C 654.16 425.145 659.838 407.246 667.324 393.17 C 674.291 421.094 682.16 449.138 694.006 475.434 C 703.904 497.409 715.497 517.663 724.994 540.029 C 745.182 586.913 758.05 636.62 763.148 687.411 C 766.416 722.456 765.552 757.764 760.574 792.608 C 759.575 799.367 752.013 834.515 752.208 837.948 L 751.431 839.562 C 747.849 840.956 744.307 842.218 740.967 844.129 C 741.559 848.456 742.732 853.649 741.247 857.672 L 736.43 856.255 C 736.811 863.039 741.877 878.612 744.044 886.158 C 748.459 901.124 752.55 916.184 756.314 931.327 C 758.823 941.752 763.554 970.544 765.977 978.24 C 774.646 1041.32 771.965 1107.96 752.136 1168.78 C 741.366 1126.64 727.987 1079.4 709.807 1039.96 C 659.575 930.98 603.175 861.043 626.556 734.216 C 624.013 733.388 622.754 736.261 620.203 738.79 C 608.99 749.908 596.646 758.979 583.176 766.963 C 539.198 793.292 487.654 794.574 439.035 805.52 C 417.001 810.481 396.101 818.513 375.008 826.301 C 372.515 827.222 370.447 827.635 368.141 826.369 C 360.196 810.753 371.437 743.162 375.142 724.782 C 398.869 607.083 512.45 557.647 623.038 582.625 C 632.854 584.842 642.843 592.02 650.835 594.156 z"/>
<path fill="#349505" d="M 662.366 669.094 C 679.943 721.022 707.499 767.072 724.558 818.999 C 726.303 824.312 734.313 853.813 736.43 856.255 C 736.811 863.039 741.877 878.612 744.044 886.158 C 748.459 901.124 752.55 916.184 756.314 931.327 C 758.823 941.752 763.554 970.544 765.977 978.24 C 774.646 1041.32 771.965 1107.96 752.136 1168.78 C 741.366 1126.64 727.987 1079.4 709.807 1039.96 C 659.575 930.98 603.175 861.043 626.556 734.216 C 629.697 725.812 639.529 716.682 644.727 708.504 C 652.626 696.077 656.264 682.661 662.092 669.694 L 662.366 669.094 z"/>
<path fill="#349505" d="M 650.835 594.156 C 639.721 539.537 636.782 495.761 650.36 440.586 C 654.16 425.145 659.838 407.246 667.324 393.17 C 674.291 421.094 682.16 449.138 694.006 475.434 C 703.904 497.409 715.497 517.663 724.994 540.029 C 745.182 586.913 758.05 636.62 763.148 687.411 C 766.416 722.456 765.552 757.764 760.574 792.608 C 759.575 799.367 752.013 834.515 752.208 837.948 L 751.431 839.562 C 747.849 840.956 744.307 842.218 740.967 844.129 C 741.559 848.456 742.732 853.649 741.247 857.672 L 736.43 856.255 C 734.313 853.813 726.303 824.312 724.558 818.999 C 707.499 767.072 679.943 721.022 662.366 669.094 C 662.096 667.106 665.042 649.347 665.552 645.969 C 664.139 641.428 662.768 621.399 661.508 614.41 C 590.41 630.747 547.975 647.811 485.526 684.769 C 511.341 658.174 567.229 629.607 601.478 616.228 C 615.61 610.707 630.096 606.078 644.092 600.342 C 648.528 598.524 648.856 597.814 650.835 594.156 z"/>
<path fill="#66CB34" d="M 636.601 911.008 C 641.722 925.29 646.844 938.978 652.491 953.072 C 668.111 992.062 691.648 1027.98 708.472 1066.07 C 758.118 1178.49 775.803 1314.62 722.553 1429 C 714.275 1446.75 696.842 1477.11 681.28 1489.22 C 623.817 1445.2 601.925 1366.04 619.478 1297.08 L 617.534 1296.89 L 616.855 1297.49 C 573.796 1335.38 513.017 1346.65 463.572 1373.64 C 456.496 1377.51 430.137 1396.16 424.1 1395.78 C 418.538 1391.75 414.991 1377.1 412.942 1370.28 C 395.757 1314.5 390.091 1243.46 419.878 1191.41 C 459.557 1122.08 542.446 1092.27 618.794 1100.4 C 619.142 1100.27 619.49 1100.14 619.839 1100.01 C 599.416 1040.78 610.716 967.041 636.601 911.008 z"/>
<path fill="#349505" d="M 636.601 911.008 C 641.722 925.29 646.844 938.978 652.491 953.072 C 668.111 992.062 691.648 1027.98 708.472 1066.07 C 758.118 1178.49 775.803 1314.62 722.553 1429 C 714.275 1446.75 696.842 1477.11 681.28 1489.22 C 623.817 1445.2 601.925 1366.04 619.478 1297.08 C 619.972 1295.19 642.261 1270.84 645.468 1267 C 646.521 1264.98 649.962 1259.87 651.322 1257.73 C 655.504 1249.86 661.996 1237.67 664.55 1229.42 C 677.701 1186.98 670.181 1149.82 649.999 1111.44 C 584.373 1142.46 536.303 1185.16 490.071 1239.71 C 514.004 1189.72 566.008 1141.28 612.977 1112.99 C 616.289 1111 627.443 1106.28 627.755 1102.95 C 623.286 1102.12 622.56 1102.78 619.839 1100.01 C 599.416 1040.78 610.716 967.041 636.601 911.008 z"/>
<path fill="#349505" d="M 752.208 837.948 C 790.7 821.96 837.936 826.159 876.056 841.233 C 965.452 876.582 990.47 972.868 990.251 1060.48 C 990.237 1065.93 991.361 1086.28 986.464 1088.87 C 968.211 1083.2 949.439 1071.08 930.429 1065.78 C 868.268 1048.42 809.438 1029.03 765.977 978.24 C 763.554 970.544 758.823 941.752 756.314 931.327 C 752.55 916.184 748.459 901.124 744.044 886.158 C 741.877 878.612 736.811 863.039 736.43 856.255 L 741.247 857.672 C 742.732 853.649 741.559 848.456 740.967 844.129 C 744.307 842.218 747.849 840.956 751.431 839.562 L 752.208 837.948 z"/>
<path fill="#66CB34" d="M 740.967 844.129 C 744.307 842.218 747.849 840.956 751.431 839.562 L 751.049 840.562 C 750.069 843.164 749.335 844.269 749.973 846.894 C 752.221 848.923 777.345 856.594 783.415 858.882 C 826.215 875.022 878.542 916.306 903.965 954.372 L 903.696 955.672 L 904.506 955.289 L 904.344 955.938 L 903.8 955.613 L 904.201 954.557 L 902.686 954.739 C 894.353 946.582 883.436 935.78 874.662 928.442 C 838.919 898.547 786.436 869.782 741.247 857.672 C 742.732 853.649 741.559 848.456 740.967 844.129 z"/>
</svg>
