<svg xmlns="http://www.w3.org/2000/svg" viewBox="428.7 403.9 1191.8 1202.9" fill="none">
<title>Jungle Monstera</title>
<g transform="matrix(1 0 0 -1 0 2010.7)">
<path fill="#98D31B" d="M 544.842 533.376 C 550.799 523.397 561.945 512.019 570.36 504.036 C 606.511 469.359 650.572 444.02 698.726 430.213 C 761.684 412.425 827.136 416.763 885.157 449.355 C 944.484 481.204 979.379 540.864 1001.53 602.304 C 1005.63 613.659 1007.04 626.644 1011.17 638.114 C 1014.02 646.036 1014.47 647.523 1021.8 651.569 L 1022.85 652.135 C 1025.25 705.24 1023.28 763.215 1026.42 815.461 C 1216.65 848.711 1412.16 930.988 1527.84 1093.17 C 1532.78 1100.09 1546.33 1123.94 1549.55 1127.25 C 1540.87 1145.9 1516.83 1195.73 1503.38 1209.55 C 1488.77 1184.54 1473.13 1161.71 1454.76 1139.31 C 1415.73 1091.75 1337.89 1017.27 1277.55 1001.53 C 1270.51 999.699 1258.28 997.047 1251.92 1001.38 C 1249.18 1003.24 1247.66 1005.68 1247.15 1008.91 C 1245.86 1017.03 1250.46 1024.7 1255.3 1030.8 C 1270.81 1050.38 1293.45 1065.42 1313.77 1079.66 C 1367.65 1117.4 1430.68 1156.27 1462.65 1216.01 C 1468.57 1227.07 1475.56 1240.18 1474.05 1253.14 C 1470.43 1284.21 1386.23 1355.79 1360.97 1375.31 C 1344.06 1389.85 1306.26 1420.56 1285.8 1427.07 C 1271.23 1368.78 1250.57 1319.34 1207.93 1275.3 C 1199.5 1266.59 1174.07 1239.74 1158.96 1242.2 C 1148.49 1243.9 1158.64 1266.57 1162.03 1271.34 C 1200.49 1329.67 1248 1370.54 1250.89 1446.22 C 1240.46 1455.74 1224.93 1464.61 1212.37 1471.64 C 1146.63 1508.43 1088.76 1539.22 1032.17 1589.95 L 1031.04 1590.73 C 1030.19 1590.55 981.917 1551.6 973.971 1546.11 C 952.749 1531.44 930.698 1518.41 908.18 1505.86 C 880.769 1490.58 777.81 1441.31 765.037 1420.85 C 757.794 1409.25 761.162 1391.4 762.947 1378.53 C 770.819 1321.8 803.694 1272.34 842.419 1231.59 C 861.59 1211.42 900.086 1180.89 905.921 1153.59 C 907.139 1147.89 907.478 1140.88 904.011 1135.84 C 901.396 1132.05 896.749 1130.25 892.313 1129.78 C 879.368 1128.44 865.723 1137.5 855.962 1145.2 C 838.354 1159.1 822.916 1178.48 808.814 1195.85 C 758.474 1257.83 728.085 1310.43 718.321 1390.94 C 703.55 1383.02 672.868 1356.15 659.995 1344.47 C 627.863 1312.97 587.26 1273.57 566.583 1233.37 C 554.274 1209.43 566.956 1188.27 581.229 1168.77 C 597.537 1146.49 617.69 1126.07 638.881 1108.37 C 653.342 1096.3 668.249 1084.42 683.484 1073.34 C 710.246 1053.87 790.781 1002.74 798.831 974.206 C 799.779 970.845 800.04 966.597 797.873 963.621 C 795.388 960.207 790.53 959.166 786.562 959.045 C 771.698 958.589 756.517 964.743 743.332 970.95 C 678.65 1001.4 614.706 1067.48 572.088 1123.82 C 565.063 1133.1 558.401 1142.65 552.115 1152.44 C 548.548 1158.02 538.883 1176.18 535.545 1179.17 L 533.51 1178.7 C 519.507 1164.84 485.135 1081.18 478.082 1061.04 C 477.329 1052.44 468.918 1032.67 466.121 1023.22 C 456.974 992.314 436.769 906.75 447.998 877.558 C 452.151 866.763 466.297 857.88 475.582 851.707 C 526.495 817.858 585.555 801.152 644.238 786.422 C 671.433 779.595 700.165 773.883 725.615 761.861 C 733.366 758.2 746.918 750.219 749.112 741.528 C 749.785 738.865 749.7 736.637 748.114 734.301 C 742.052 725.373 722.94 727.516 713.609 728.322 C 650.351 733.785 573.085 760.598 515.515 786.643 C 506.864 790.557 452.821 819.653 448.535 818.827 C 446.066 813.36 446.681 802.314 446.768 795.942 C 447.057 761.004 451.534 726.227 460.103 692.356 C 468.448 658.574 481.279 612.238 508.689 589.222 C 558.82 547.129 746.183 607.298 777.546 586.161 C 779.803 584.641 781.82 582.439 781.784 579.563 C 781.74 576.1 779.228 572.78 776.941 570.419 C 746.988 539.49 641.406 530.025 598.045 530.317 C 580.66 530.433 563.202 533.743 545.905 533.408 C 545.551 533.401 545.196 533.387 544.842 533.376 z"/>
<path fill="#5A8500" d="M 659.995 1344.47 C 663.639 1333.26 666.464 1312.98 669.869 1300.03 C 680.353 1260.68 695.666 1222.78 715.46 1187.2 C 776.955 1077.46 889.552 983.172 1011.21 948.918 C 1016.66 992.656 1006.36 1177.44 1026.44 1201.48 L 1028.39 1201.42 C 1029.55 1200 1030.46 1199.09 1031.33 1197.51 C 1033.4 1209.1 1032.54 1259.51 1032.65 1273.8 C 1033.31 1354.57 1035.36 1435.3 1032.56 1516.05 C 1032.22 1525.81 1030.3 1586.14 1032.17 1589.95 L 1031.04 1590.73 C 1030.19 1590.55 981.917 1551.6 973.971 1546.11 C 952.749 1531.44 930.698 1518.41 908.18 1505.86 C 880.769 1490.58 777.81 1441.31 765.037 1420.85 C 757.794 1409.25 761.162 1391.4 762.947 1378.53 C 770.819 1321.8 803.694 1272.34 842.419 1231.59 C 861.59 1211.42 900.086 1180.89 905.921 1153.59 C 907.139 1147.89 907.478 1140.88 904.011 1135.84 C 901.396 1132.05 896.749 1130.25 892.313 1129.78 C 879.368 1128.44 865.723 1137.5 855.962 1145.2 C 838.354 1159.1 822.916 1178.48 808.814 1195.85 C 758.474 1257.83 728.085 1310.43 718.321 1390.94 C 703.55 1383.02 672.868 1356.15 659.995 1344.47 z"/>
<path fill="#5A8500" d="M 478.082 1061.04 C 504.308 1021.06 545.031 976.999 580.942 945.795 C 673.587 865.571 785.126 810.247 905.056 785.034 C 936.31 778.284 979.464 771.668 1010.94 773.838 C 1008.37 829.897 1010 892.901 1011.21 948.918 C 889.552 983.172 776.955 1077.46 715.46 1187.2 C 695.666 1222.78 680.353 1260.68 669.869 1300.03 C 666.464 1312.98 663.639 1333.26 659.995 1344.47 C 627.863 1312.97 587.26 1273.57 566.583 1233.37 C 554.274 1209.43 566.956 1188.27 581.229 1168.77 C 597.537 1146.49 617.69 1126.07 638.881 1108.37 C 653.342 1096.3 668.249 1084.42 683.484 1073.34 C 710.246 1053.87 790.781 1002.74 798.831 974.206 C 799.779 970.845 800.04 966.597 797.873 963.621 C 795.388 960.207 790.53 959.166 786.562 959.045 C 771.698 958.589 756.517 964.743 743.332 970.95 C 678.65 1001.4 614.706 1067.48 572.088 1123.82 C 565.063 1133.1 558.401 1142.65 552.115 1152.44 C 548.548 1158.02 538.883 1176.18 535.545 1179.17 L 533.51 1178.7 C 519.507 1164.84 485.135 1081.18 478.082 1061.04 z"/>
<path fill="#5A8500" d="M 1031.26 1007.24 C 1061.08 1015.42 1081.15 1030.6 1106.5 1047.5 C 1209.79 1116.38 1299.7 1213.53 1342.98 1331.36 C 1347.23 1342.94 1352.97 1367.57 1360.97 1375.31 C 1344.06 1389.85 1306.26 1420.56 1285.8 1427.07 C 1271.23 1368.78 1250.57 1319.34 1207.93 1275.3 C 1199.5 1266.59 1174.07 1239.74 1158.96 1242.2 C 1148.49 1243.9 1158.64 1266.57 1162.03 1271.34 C 1200.49 1329.67 1248 1370.54 1250.89 1446.22 C 1240.46 1455.74 1224.93 1464.61 1212.37 1471.64 C 1146.63 1508.43 1088.76 1539.22 1032.17 1589.95 C 1030.3 1586.14 1032.22 1525.81 1032.56 1516.05 C 1035.36 1435.3 1033.31 1354.57 1032.65 1273.8 C 1032.54 1259.51 1033.4 1209.1 1031.33 1197.51 C 1031.07 1133.56 1029.01 1071.1 1031.26 1007.24 z"/>
<path fill="#5A8500" d="M 1022.85 652.135 C 1040.7 642.577 1038.63 630.665 1043.32 612.253 C 1107.72 359.741 1409.62 366.355 1526.18 572.709 C 1528.61 577.025 1534.29 587.421 1532.23 591.914 C 1527.42 593.101 1513.35 586.48 1506.64 584.628 C 1494.82 581.37 1482.85 578.689 1470.77 576.594 C 1413.1 566.746 1347.8 567.874 1292.44 588.459 C 1282.1 592.302 1259.91 602.561 1258.72 614.895 C 1264.39 631.316 1310.06 624.152 1323.27 622.363 C 1390.18 613.3 1504.68 601.61 1559.93 649.077 C 1600.54 683.966 1606.8 805.316 1603.79 857.771 C 1603.32 865.867 1602.39 880.355 1600.47 887.82 L 1599.35 887.117 C 1581.91 876.019 1566.22 862.708 1548.28 852.171 C 1483.45 814.1 1358.97 758.443 1283.08 775.079 C 1278.72 776.035 1273.39 777.604 1270.58 781.379 C 1268.77 783.811 1268.63 786.654 1269.46 789.46 C 1271.84 797.484 1281.19 803.882 1288.31 807.438 C 1311.59 819.069 1339.28 825.124 1364.36 831.98 C 1432.62 850.647 1503.81 868.986 1561.23 912.483 C 1572.87 921.302 1588.63 933.534 1594.13 947.568 C 1598.07 957.619 1596.07 970.483 1594.71 980.908 C 1588.04 1032.01 1569.89 1080.24 1549.55 1127.25 C 1546.33 1123.94 1532.78 1100.09 1527.84 1093.17 C 1412.16 930.988 1216.65 848.711 1026.42 815.461 C 1023.28 763.215 1025.25 705.24 1022.85 652.135 z"/>
</g>
</svg>
