<svg xmlns="http://www.w3.org/2000/svg" viewBox="388.0 344.5 1275.0 1362.2" fill="none">
<title>Jungle Philodendron</title>
<g transform="matrix(1 0 0 -1 0 2051.2)">
<path fill="##349505" d="M 1024.24 565.079 C 1057.13 486.639 1113.86 413.951 1194.6 381.723 C 1353.36 318.357 1544.76 403.204 1607.28 561.372 C 1632.08 623.972 1642.95 681.856 1646.99 748.704 C 1579.39 686.294 1421.81 641.29 1329.97 642.06 C 1321.54 642.131 1304.88 643.68 1298.88 650.27 C 1296.62 652.75 1297.1 652.975 1297.04 655.906 C 1301.82 665.263 1317.33 669.596 1326.67 672.625 C 1354.02 681.499 1382.11 688.563 1409.65 696.957 C 1475.1 716.907 1546.79 743.293 1601.09 786.098 C 1614.6 796.75 1629.9 810.136 1637.65 825.833 C 1651.07 853.004 1626.91 966.094 1619.18 996.69 C 1613.83 1017.89 1607.43 1038.8 1599.99 1059.36 C 1592.62 1079.66 1584.48 1099.67 1575.58 1119.35 C 1566.69 1094.64 1557.58 1070.98 1543.63 1048.39 C 1492.77 966.006 1411.47 903.873 1325.94 860.439 C 1310.25 852.471 1254.19 824.254 1239.94 849.561 C 1238.57 852.617 1240.39 859.546 1242.49 861.697 C 1281.63 901.927 1329.01 932.707 1373.59 967.474 C 1411.19 996.79 1549.93 1123.3 1536.78 1174.51 C 1513.66 1264.57 1421.79 1370.18 1344.62 1422.17 C 1336.28 1299.62 1283.16 1200.76 1195.36 1115.21 C 1169.57 1090.07 1157.69 1111.67 1175.02 1136.2 C 1225.65 1217.74 1279.76 1301.48 1298.39 1397.19 C 1300.61 1408.66 1303.79 1429.61 1298.04 1440.61 C 1282.51 1459.58 1253.93 1479.3 1234.28 1493.61 C 1163.6 1545.06 1067.05 1611.4 1026.04 1690.72 L 1024.06 1681.12 L 1024.34 1074.59 L 1024.3 743.883 C 1024.31 684.606 1024.96 624.281 1024.24 565.079 z"/>
<path fill="##66CB34" d="M 404.026 772.145 C 405.102 710.302 412.804 656.028 430.02 596.599 C 478.118 428.365 665.264 319.887 834.23 375.005 C 932.936 407.204 980.188 477.883 1024.24 565.079 C 1024.96 624.281 1024.31 684.606 1024.3 743.883 L 1024.34 1074.59 L 1024.06 1681.12 C 996.554 1624.46 949.51 1581.02 901.084 1542.06 C 877.724 1523.27 787.978 1460.14 778.711 1440.25 C 771.759 1425.32 772.607 1406.94 773.961 1391.01 C 779.887 1321.3 809.389 1255.66 841.755 1194.6 C 854.007 1171.5 874.075 1144.66 881.876 1120.42 C 883.171 1116.39 883.755 1111.42 881.063 1107.75 C 879.488 1105.61 877.197 1104.89 874.653 1104.77 C 867.143 1104.39 858.71 1111.79 853.513 1116.65 C 835.748 1133.28 820.605 1154.62 806.781 1174.57 C 752.14 1253.39 726.359 1325.55 723.047 1421.64 C 635.346 1359.57 560.564 1281.27 522.436 1178.91 C 514.334 1157.16 531.895 1132.59 543.837 1115.26 C 574.755 1070.38 614.899 1031.09 655.969 995.56 C 674.185 979.996 692.786 964.89 711.756 950.255 C 733.933 933.054 800.214 887.528 811.76 864.959 C 814.272 860.049 816.157 854.883 814.27 849.436 C 812.767 845.097 810.064 841.669 805.755 839.897 C 793.296 834.774 772.43 842.756 760.712 847.547 C 732.41 859.119 706.39 875.162 681.086 892.169 C 597.171 948.565 521.167 1023.76 481.71 1118.12 C 436.971 1044.37 417.691 944.875 410.348 859.762 C 408.385 837.014 422.559 820.914 439.023 806.793 C 521.297 736.227 629.879 708.852 729.081 671.366 C 735.472 668.951 748.09 662.249 751.719 656.436 C 753.444 631.351 663.491 650.819 649.574 654.254 C 564.229 675.316 467.934 709.668 404.026 772.145 z"/>
</g>
</svg>
