<svg xmlns="http://www.w3.org/2000/svg" viewBox="91.5 242.7 1365.2 1577.5" fill="none">
<title>Jungle (stacked)</title>
<path fill="#66CB34" d="M 953.835 516.411 C 962.273 515.68 975.487 515.93 984.288 515.854 L 984.581 910.845 L 984.563 1040.34 C 984.512 1135.44 988.552 1257.45 894.773 1314.49 C 856.585 1338.64 820.217 1342.23 776.383 1342.1 C 709.251 1341.91 643.676 1318.17 606.192 1257.96 C 584.225 1216.8 578.986 1170.95 605.796 1130.16 C 615.343 1115.63 628.142 1105.52 641.152 1094.3 C 650.331 1136.52 682.249 1173.29 724.328 1185.47 C 844.593 1220.28 826.65 1127.16 826.65 1045.45 L 826.657 760.462 L 826.603 680.419 C 826.583 666.31 826.781 652.278 826.891 638.188 C 827.451 566.765 885.447 521.386 953.835 516.411 z"/>
<path fill="#349505" d="M 393.026 1073.77 C 383.078 1063.59 327.27 1020.74 326.261 1011.9 C 326.223 1011.57 326.283 1011.24 326.294 1010.91 C 328.642 1009.96 331.78 1008.79 334.002 1007.86 C 342.081 1004.48 351.584 996.345 359.309 991.102 C 379.06 977.695 398.682 964.163 418.336 950.627 C 426.673 944.885 434.566 938.099 442.747 932.534 L 442.84 931.309 C 435.634 927.721 427.25 935.409 420.432 936.075 C 411.756 936.923 403.664 937.279 394.945 938.639 L 287.761 954.772 C 282.117 955.598 262.34 960.313 258.752 958.342 C 251.39 954.042 228.318 936.047 224.734 929.147 C 192.279 866.645 161.616 802.968 130.871 739.568 C 126.175 729.886 102.928 689.803 103.46 681.809 C 105.318 681.064 105.579 680.47 107.604 681.591 C 147.457 703.636 188.389 725.379 228.904 746.265 L 457.542 863.98 L 595.667 936.257 C 607.071 942.091 617.497 948.425 629.199 954.052 C 660.299 969.108 691.084 984.806 721.533 1001.14 C 741.799 1012.07 750.33 1008.65 747.59 1036.42 C 746.601 1046.45 750.339 1071.43 741.992 1078.09 C 730.114 1080.09 720.752 1059.65 713.776 1052.35 C 702.468 1040.51 689.553 1029.35 679.112 1016.78 C 656.265 1017.7 622.56 1017.73 599.644 1016.8 C 578.168 1033.71 560.574 1053.29 541.272 1072.61 C 531.515 1082.37 524.765 1093.74 513.124 1101.48 L 511.55 1101.33 C 491.993 1099.69 456.234 1107.52 435.458 1107.16 C 434.39 1106.46 433.489 1105.87 432.755 1105.38 C 431.035 1102.12 430.998 1103.21 431.491 1100.17 C 456.847 1078.04 487.327 1055.52 511.925 1032.69 C 506.173 1032.34 492.787 1032.58 488.94 1030.37 C 465.926 1038.46 440.155 1052.96 417.495 1062.76 C 409.637 1066.16 400.995 1071 393.026 1073.77 z"/>
<path fill="#349505" d="M 330.124 595.324 C 335.152 594.8 340.375 594.903 345.433 594.937 C 357.601 595.019 389.763 597.378 399.228 603.827 C 405.795 608.301 456.277 696.236 463.585 708.373 C 469.423 718.068 475.236 730.347 483.325 738.3 C 491.143 745.989 503.802 754.632 514.024 758.647 C 526.726 763.636 541.664 766.041 555.022 769.153 L 622.571 785.031 C 643.729 789.959 668.943 796.972 689.793 800.889 C 699.389 802.691 734.532 801.905 745.913 801.882 C 746.362 819.37 749.702 839.713 750.207 857.514 C 750.43 865.36 747.462 875.299 747.4 883.549 C 747.201 910.468 747.254 937.476 747.586 964.384 C 723.471 949.705 691.931 934.354 666.776 920.345 C 652.956 912.649 640.023 905.017 625.792 897.93 C 615.824 892.893 605.8 886.47 595.86 881.094 L 503.559 830.73 L 270.18 703.753 L 178.175 653.842 C 169.546 649.134 144.68 639.783 144.002 629.16 L 145.938 628.016 C 150.174 628.181 151.372 629.235 155.058 631.296 C 165.325 628.372 175.394 625.95 185.888 624.015 C 211.865 619.226 237.648 613.529 263.696 609.15 C 285.104 605.55 308.983 598.529 330.124 595.324 z"/>
<path fill="#66CB34" d="M 399.655 280.076 C 400.833 280.514 401.999 280.986 403.15 281.491 L 404.488 282.077 C 410.087 284.467 432.533 312.759 437.733 318.837 L 498.696 389.291 L 659.327 574.634 L 707.625 630.346 C 713.117 636.6 744.37 670.725 745.474 675.735 C 749.175 692.526 747.278 740.591 747.146 758.207 C 741.871 756.063 729.867 753.032 723.904 751.344 C 708.32 746.86 692.682 742.567 676.994 738.464 C 642.29 729.257 606.103 718.905 571.515 709.161 C 563.737 706.81 527.564 698.863 524.523 695.715 C 522.995 687.804 524.445 688.082 530.106 686.271 C 542.014 682.46 627.304 658.781 630.667 653.382 C 623.235 648.8 522.975 658.649 504.069 657.971 C 492.043 635.479 481.638 616.015 468.355 594.272 C 489.481 589.946 510.697 584.83 531.669 579.781 C 538.71 578.086 578.707 571.717 580.338 567.113 C 577.049 564.53 488.743 545.73 476.583 542.378 C 447.658 534.406 433.832 541.033 420.942 502.011 C 418.683 495.173 420.44 487.415 419.062 480.414 C 415.077 452.658 413.183 424.975 411.912 396.986 C 406.711 368.697 408.254 302.418 399.655 280.076 z"/>
<path fill="#66CB34" d="M 444.994 254.695 L 446.14 254.757 C 457.263 255.242 458.191 258.382 467.501 260.121 L 555.192 275.815 C 564.608 277.479 600.99 283.369 607.965 286.605 C 621.277 292.779 673.477 322.64 682.236 330.775 C 682.15 364.787 684.253 421.657 677.11 452.345 C 679.152 450.463 686.651 443.764 687.55 441.729 C 694.071 426.967 700.349 411.908 707.553 397.457 C 714.073 384.897 719.009 370.247 726.214 358.44 C 728.518 354.665 747.368 368.077 749.187 369.097 C 769.605 380.548 776.925 385.894 786.681 406.982 L 771.401 448.195 C 767.414 458.673 762.961 468.47 759.96 479.283 C 773.062 473.509 789.288 453.705 806.411 443.908 C 810.219 455.65 813.995 460.332 819.14 471.172 C 819.14 472.692 819.12 476.608 818.314 477.686 C 808.293 491.095 791.007 505.906 779.32 518.047 C 752.94 545.453 747.199 577.022 747.894 613.309 C 750.256 615.759 750.566 615.963 752.038 618.962 L 751.171 619.589 C 747.477 617.495 744.159 614.8 741.353 611.614 C 720.62 588.324 695.821 556.72 675.45 532.155 L 553.349 385.359 L 475.663 292.118 C 465.753 280.054 453.699 267.334 444.994 254.695 z"/>
<path fill="#349505" d="M 1064.63 1143.25 C 1066.92 1143.53 1069.04 1144 1071.23 1144.76 C 1086.96 1150.21 1117.23 1145.8 1131.76 1146.79 L 1312.8 1160.98 C 1345.59 1163.55 1377.94 1168.74 1411.27 1168.28 C 1414.38 1168.24 1427.35 1168.91 1429.46 1170.28 C 1437.5 1175.54 1437.14 1167.54 1444.6 1168.56 L 1444.7 1170.54 C 1434.23 1186.18 1409.71 1196.63 1393.5 1206.61 L 1314.61 1256.13 C 1297.04 1267.05 1278.76 1277.17 1261.89 1289.14 C 1252.69 1295.98 1230.98 1295.2 1219.42 1294.66 C 1208.26 1287.29 1192.94 1272.43 1182.06 1263.58 C 1156.35 1242.65 1131.33 1221.57 1106.66 1199.45 L 1105.19 1200.2 C 1103.32 1207.78 1151.75 1295.75 1150.18 1306.24 C 1143.24 1309.83 1107.87 1311.42 1097.88 1313.72 C 1093.06 1314.83 1089.29 1316.4 1084.68 1318.21 C 1071.16 1307.53 1061.63 1291.87 1052.22 1277.64 C 1041.13 1260.85 1052.77 1244.79 1055.13 1227.63 C 1057.44 1210.86 1060.28 1194.01 1062.19 1177.19 C 1063.44 1167.07 1062.28 1152.75 1064.63 1143.25 z"/>
<path fill="#66CB34" d="M 914.524 1540.2 C 936.321 1538.92 960.697 1537.86 973.588 1559.44 C 978.083 1566.96 986.17 1587.22 981.684 1595.27 C 977.34 1596.96 960.645 1587.13 954.946 1585.13 C 899.711 1565.79 864.563 1640.96 904.584 1677.24 C 914.462 1686.32 927.597 1691.02 940.995 1690.26 C 983.388 1687.92 988.209 1644.75 988.474 1612.03 C 988.565 1600.91 990.977 1590.24 990.404 1578.66 C 989.939 1569.27 984.335 1550.73 990.366 1543.88 C 998.581 1540.64 1029.59 1541.75 1038.84 1543.23 C 1039.54 1573.74 1039.11 1608.6 1038.68 1639.25 C 1038.04 1684.83 1046.76 1742.54 1014.83 1778.63 C 988.417 1806.95 948.072 1812.51 911.554 1805.36 C 886.394 1800.43 859.743 1787.65 854.259 1760.02 C 853.369 1755.54 851.84 1740.71 854.109 1737.3 C 861.329 1735.29 866.134 1741.49 872.349 1745.68 C 902.117 1765.78 966.14 1777.4 983.693 1735.57 C 985.296 1731.75 990.473 1717.66 990.217 1713.91 C 986.427 1711.88 979.623 1717.13 976.116 1719.62 C 948.523 1739.24 909.563 1739.53 881.385 1720.84 C 860.682 1706.87 846.271 1685.35 841.238 1660.89 C 830.229 1604.86 855.831 1551.74 914.524 1540.2 z"/>
<path fill="#66CB34" d="M 1400.9 768.968 C 1404.08 769.014 1402.77 768.504 1405.11 769.986 C 1405.01 773.078 1390.68 789.989 1388.06 793.533 L 1328.81 875.03 C 1319.93 887.126 1310.25 900.938 1300.39 912.167 C 1294.9 918.412 1282.11 924.605 1274.45 928.767 C 1246.97 918.512 1187.13 905.323 1165.27 888.337 C 1171.6 904.195 1180.05 908.716 1191.87 920.122 C 1204.45 932.27 1217.97 944.233 1229.84 957.037 C 1228.78 958.545 1225.96 962.695 1224.67 963.506 C 1212.13 971.417 1193.02 983.792 1179.35 987.764 C 1154.87 970.131 1129.42 953.878 1105.25 935.764 C 1102.7 933.853 1098.77 930.398 1096.05 929.322 L 1095.25 930.719 C 1098.23 936.217 1101.74 941.416 1105.72 946.243 C 1113.19 955.254 1152.64 994.31 1152.4 1001.02 C 1152.31 1003.68 1151.51 1005.73 1149.71 1007.63 C 1146.58 1007.38 1141.87 1003.07 1139.09 1000.93 C 1127.77 1000.22 1079.66 985.226 1065.55 981.226 C 1064.77 976.743 1063.96 972.567 1063.99 967.966 C 1064.17 937.794 1062.93 906.632 1064.41 876.554 C 1082.5 872.736 1106.52 864.893 1124.59 859.432 L 1191.03 839.893 C 1225.47 829.471 1260 819.256 1294.1 807.687 C 1302.77 804.743 1311.93 802.712 1320.47 799.928 C 1326.19 798.065 1334.85 790.201 1341.11 788.256 C 1361.4 781.944 1381.04 776.756 1400.9 768.968 z"/>
<path fill="#66CB34" d="M 1147.8 684.067 L 1149.62 684.199 C 1157.11 694.29 1140.09 752.124 1145.5 769.159 L 1147.07 769.562 C 1148.75 767.45 1158.39 748.066 1160.44 744.114 C 1167.5 730.525 1188.55 701.097 1192.66 688.436 C 1214.85 689.606 1240.38 687.515 1262.64 689.997 C 1273.57 691.216 1288.08 697.802 1298.54 701.887 L 1348.05 721.113 C 1359.96 725.628 1370.67 727.885 1380.87 731.707 C 1381.75 735.355 1382.32 734.998 1381.13 737.714 C 1359.33 739.914 1366.05 745.118 1353.03 750.334 C 1331.62 758.91 1306.95 765.388 1285.06 772.93 C 1274.14 777.523 1263.09 780.323 1251.84 783.934 L 1205.31 799.22 C 1158.31 814.188 1111.49 829.731 1064.87 845.845 C 1064.43 842.179 1063.78 834.616 1064.03 831.005 C 1066.15 800.94 1058.84 751.335 1067.59 723.607 C 1070.26 732.57 1071.02 748.08 1076.45 754.337 L 1078.04 754.259 C 1079.11 752.187 1087.79 701.386 1088.13 696.576 C 1122.69 673.838 1124.04 693.718 1147.8 684.067 z"/>
<path fill="#349505" d="M 1271.77 992.043 C 1314.52 1004.97 1323.16 1016.11 1354.83 1044.56 L 1441.97 1124.19 C 1398.2 1118.51 1352.54 1120.84 1308.62 1116.56 C 1279.04 1113.68 1250.21 1111.75 1220.45 1111.13 C 1196.18 1110.76 1171.08 1107.69 1146.87 1105.96 C 1141.44 1105.57 1133.35 1109.64 1128.5 1109.16 C 1107.63 1107.1 1085.55 1105.01 1064.57 1104.96 C 1063.99 1096.36 1062.48 1036.55 1065.43 1032.26 L 1068.06 1031.81 C 1072.07 1033.09 1072.71 1033.91 1075.83 1036.82 C 1106.65 1041.24 1141.19 1066.86 1171.13 1048.58 C 1178.6 1044.02 1188.05 1033.75 1195.6 1030.26 C 1221.43 1018.33 1246.28 1004.59 1271.77 992.043 z"/>
<path fill="#66CB34" d="M 1239.66 1540.32 C 1270.73 1536.93 1302.38 1541.37 1322.98 1565.25 C 1370.01 1619.77 1314.38 1671.64 1255.27 1666.24 C 1236.73 1664.55 1226.47 1659.8 1214.66 1646.48 C 1214.43 1644.65 1210.66 1617.92 1217.9 1617.49 C 1218.92 1617.43 1232.11 1624.94 1234.73 1625.49 C 1246.44 1627.88 1259.48 1627.34 1271.32 1625.99 C 1298.79 1622.87 1305.86 1601.75 1281 1586.47 C 1254.64 1570.28 1222.97 1585.12 1208.52 1610 C 1198.37 1627.48 1198.83 1636.87 1203.53 1655.75 C 1212.36 1690.27 1244.79 1708.42 1277.73 1692.22 C 1286.08 1688.12 1291.11 1684.2 1298.28 1678.43 C 1307.41 1683.65 1332.45 1691.5 1334.87 1700.89 C 1334.7 1702.18 1334.56 1703.38 1333.65 1704.36 C 1310.17 1729.76 1287.29 1740.57 1252.49 1739.42 C 1230.26 1740.04 1213.57 1736.13 1195.12 1722.99 C 1148.74 1689.94 1141.09 1622.64 1174.41 1577.54 C 1190.77 1555.38 1212.65 1544.25 1239.66 1540.32 z"/>
<path fill="#66CB34" d="M 733.017 1540.28 C 745.898 1539.31 759.856 1538.44 772.109 1543.05 C 795.914 1552.02 810.94 1573.03 812.594 1598.22 C 814.299 1624.16 813.181 1649.65 813.228 1675.59 C 813.257 1692.17 813.533 1708.43 813.976 1724.99 C 814.059 1727.86 813.673 1730.34 812.655 1733.02 C 805.468 1737.94 772.796 1736.15 763.955 1734.77 C 763.545 1727.06 764.175 1718.5 764.327 1710.68 C 764.932 1679.41 764.467 1648.12 763.185 1616.86 C 762.768 1606.69 761.642 1597.95 753.281 1590.95 C 737.961 1578.11 724.383 1578.09 711.283 1594.08 C 708.918 1598 706.351 1603.41 704.235 1607.59 L 691.032 1596.87 C 690.755 1638.98 693.838 1695.33 690.948 1736.2 C 675.444 1735.52 658.927 1735.9 643.333 1736.01 C 642.34 1712.49 642.978 1685.03 642.975 1661.27 L 643.175 1542.77 C 658.967 1542.8 674.76 1543.02 690.521 1542.04 L 691.462 1560.51 C 709.627 1550.46 709.447 1545.46 733.017 1540.28 z"/>
<path fill="#66CB34" d="M 596.343 1546.41 C 599.191 1545.99 599.824 1545.71 602.583 1546.69 C 604.823 1549.62 603.608 1594.67 603.907 1602.12 C 606.396 1665.95 606.319 1738.73 522.435 1739.53 C 428.527 1740.42 435.883 1667.32 436.008 1599.5 L 435.946 1547.43 L 484.67 1547.07 C 485.254 1581.28 484.26 1615.93 484.909 1650.2 C 485.197 1665.34 486.655 1676.15 498.07 1686.95 C 503.267 1692.1 514.145 1697.35 521.535 1695.91 C 601.36 1680.36 506.144 1553.8 596.343 1546.41 z"/>
<path fill="#66CB34" d="M 385.55 1479.15 C 390.244 1478.69 392.081 1478.06 395.398 1481.61 C 396.478 1484.64 395.731 1645.69 395.283 1666.52 C 394.898 1684.36 389.043 1713.33 372.943 1726.15 C 354.73 1740.65 340.026 1740.21 317.613 1738.95 C 300.939 1738.02 287.209 1729.66 276.788 1717.2 L 270.214 1707.61 C 269.704 1698.64 269.949 1688.38 269.961 1679.3 C 273.709 1673.41 277.966 1667.86 282.683 1662.71 C 288.632 1671.4 294.553 1681.08 303.545 1686.91 C 311.896 1692.32 337.686 1696.7 341.542 1684.34 C 345.078 1673 344.08 1656.47 344.047 1644.31 L 343.858 1562.15 C 343.827 1544.27 341.331 1515.19 349.782 1499.12 C 356.441 1486.45 372.574 1482.34 385.55 1479.15 z"/>
<path fill="#66CB34" d="M 1115.33 1477.18 C 1118.84 1477.26 1117.87 1476.73 1120.18 1478.58 C 1121.42 1487.8 1120.79 1508.49 1120.79 1518.97 L 1120.78 1594.62 L 1120.78 1686.71 C 1120.78 1700.23 1121.54 1723.83 1120.1 1736.17 C 1106.83 1735.53 1091.25 1735.79 1077.89 1735.73 C 1074.49 1735.27 1075.15 1735.87 1073.04 1733.94 C 1072.13 1727.84 1072.68 1712.33 1072.69 1705.29 L 1072.74 1646.42 L 1072.68 1558.84 C 1072.65 1514.83 1063.97 1488.81 1115.33 1477.18 z"/>
</svg>
