<svg xmlns="http://www.w3.org/2000/svg" viewBox="0 0 2048 695" fill="none">
<title>Jungle</title>
<path fill="#66CB34" d="M 1352.4 239.547 C 1368.05 238.155 1387.48 239.951 1401.84 246.022 C 1440.26 262.266 1460.52 302.157 1444.02 341.649 C 1423.86 320.269 1411.57 314.658 1382.02 312.699 C 1300.42 307.289 1264.64 409.775 1315.06 466.348 C 1343.53 498.293 1398.07 502.247 1429.63 473.041 C 1463.98 439.081 1459.53 379.641 1459.83 335.497 C 1460.16 305.963 1458.93 275.142 1459.98 245.33 C 1484.09 244.159 1516.72 245.37 1541.8 245.076 C 1542.84 260.275 1542.14 284.1 1542.14 299.819 L 1542.16 403.1 L 1542.14 492.007 C 1542.11 559.918 1542.65 614.543 1485.59 660.983 C 1484.76 661.609 1483.93 662.216 1483.08 662.806 C 1473.59 669.364 1461.34 676.101 1450.04 680.083 C 1382.8 703.786 1250.48 695.91 1235.8 607.198 C 1233.8 595.145 1237.65 577.658 1239.97 565.226 C 1285.22 610.643 1376.71 639.998 1432.54 597.524 C 1454.94 580.484 1457.77 552.902 1460.05 527.224 C 1433.66 552.673 1401.54 567.803 1364.56 568.899 C 1326.25 569.913 1289.1 555.712 1261.24 529.403 C 1188.39 460.541 1191.83 320.902 1278.33 264.606 C 1300.49 250.184 1325.75 240.2 1352.4 239.547 z"/>
<path fill="#66CB34" d="M 1899.84 239.498 C 1958.72 236.714 2022.43 262.999 2040.64 324.87 C 2056.96 380.275 2023.38 431.245 1968.38 445.198 C 1932.72 454.246 1892.97 458.311 1858.93 440.41 C 1833.77 427.462 1825.11 397.571 1835.22 371.508 C 1838.08 364.132 1855.82 380.396 1863.78 382.055 C 1889.66 387.454 1916.59 386.7 1942.57 382.148 C 1955.86 379.767 1964.85 373.135 1971.85 361.953 C 1973.62 335.434 1958.45 322.552 1934.81 313.363 C 1888.65 295.423 1836.17 327.045 1820.8 372.076 C 1811.23 400.109 1812.89 429.79 1825.4 456.753 C 1857.07 520.509 1926.5 518.781 1974.41 473.891 C 1992.47 481.186 2023.18 497.412 2041.57 506.368 C 2034.81 514.473 2030.08 521.506 2022.57 529.682 C 1992.69 562.206 1955.96 575.463 1912.59 577.583 C 1866.85 580.471 1821.37 568.485 1787.44 536.245 C 1720.25 472.396 1718.6 356.024 1781.64 288.734 C 1813.87 254.339 1853.88 240.993 1899.84 239.498 z"/>
<path fill="#ABFA44" d="M 2039.36 337.757 C 2042.43 341.961 2041.13 362.381 2040.49 368.136 L 2039.51 367.811 C 2038.21 362.248 2038.98 344.15 2039.36 337.757 z"/>
<path fill="#66CB34" d="M 1051.33 239.427 C 1052.72 239.259 1054.12 239.167 1055.53 239.151 C 1086.76 238.698 1115.12 247.881 1138.01 269.763 C 1176.55 306.59 1168.8 368.064 1168.78 416.989 L 1168.98 569.089 C 1149.66 570.39 1107.85 569.707 1087.85 569.077 C 1088.69 522.858 1088.82 476.629 1088.25 430.407 C 1087.87 406.771 1087.34 386.691 1084.96 361.978 C 1081.11 321.762 1043.44 299.612 1007.86 320.924 C 996.757 327.574 993.657 343.496 991.889 355.919 C 980.527 353.555 973.331 342.879 966.095 334.162 C 967.886 411.782 965.174 491.26 966.678 569.11 C 942.824 570.57 910.275 569.083 885.105 569.614 C 884.704 557.11 884.779 543.536 884.992 531.018 C 886.598 436.358 882.734 340.36 885.249 245.832 C 910.351 246.485 936.51 245.13 961.645 246.473 C 963.999 246.598 964.023 246.635 965.593 248.251 C 967.738 255.862 966.235 270.322 965.72 278.583 C 990.487 253.709 1015.91 241.079 1051.33 239.427 z"/>
<path fill="#66CB34" d="M 805.053 250.37 C 809.481 249.757 815.382 249.902 819.974 249.887 C 820.138 251.693 820.29 253.686 820.306 255.501 L 820.209 354.804 C 820.231 416.864 827.41 494.581 780.265 542.114 C 732.607 590.164 627.843 589.974 579.93 542.939 C 531.878 495.766 539.275 405.687 539.368 343.5 C 539.348 313.895 538.677 280.864 539.638 251.568 C 566.926 251.85 595.342 251.089 622.461 251.922 C 623.42 294.208 621.347 337.71 622.131 380.435 C 623.052 430.706 614.14 509.858 690.439 501.254 C 742.487 495.385 738.961 439.908 738.895 401.194 L 738.746 337.383 C 738.672 306.998 736.632 279.188 766.413 261.65 C 779.882 253.718 790.06 252.219 805.053 250.37 z"/>
<path fill="#66CB34" d="M 452.913 139.325 C 458.592 138.91 466.226 139.017 472.057 138.925 L 472.026 353.181 C 472.02 398.843 474.052 441.26 468.67 487.564 C 458.846 572.089 378.685 595.548 308.428 566.076 C 293.115 559.653 281.956 548.261 272.257 534.933 C 260.339 512.73 256.122 489.543 269.654 466.88 C 275.035 457.869 282.143 452.096 289.739 445.126 C 295.073 463.327 299.788 473.263 315.921 485.242 C 330.896 496.362 374.857 507.835 383.898 483.608 C 390.314 466.416 388.311 433.014 388.303 413.111 L 388.225 271.712 C 388.218 255.533 388.797 236.881 388.213 220.894 C 386.413 171.649 403.262 148.636 452.913 139.325 z"/>
<path fill="#66CB34" d="M 1672.63 137.403 C 1675.77 136.976 1676.91 136.667 1679.91 137.555 C 1684.72 143.379 1679.14 517.402 1681.47 556.131 C 1681.6 558.222 1681.62 566.797 1681.66 569.393 L 1611.15 569.35 L 1601.65 569.635 C 1600.26 548.055 1601.25 516.708 1601.25 494.4 L 1601.23 351.183 L 1601.25 249.041 C 1601.25 231.957 1600.83 214.67 1601.72 197.58 C 1603.9 155.515 1634.07 140.244 1672.63 137.403 z"/>
<path fill="#349505" d="M 4.11286 226.516 C 6.38488 226.43 57.1365 253.656 63.0639 256.755 L 267.204 362.813 C 292.873 376.195 319.215 389.114 344.448 402.954 C 347.109 404.413 348.607 432.988 342.738 436.917 C 337.425 436.29 315.608 411.144 309.738 405.008 C 297.19 406.032 280.556 405.462 267.736 405.212 C 256.588 413.346 244.059 427.127 234.536 437.309 C 221.847 450.878 226.593 448.336 209.238 450.378 C 203.017 451.219 183.707 453.989 179.001 450.983 L 178.679 449.3 C 194.996 432.607 224.305 413.821 238.984 398.329 C 214.053 408.462 183.582 423.574 158.66 435.06 C 151.222 428.464 127.2 410.384 123.669 403.733 C 123.705 403.074 123.746 402.31 123.794 401.442 C 137.588 392.389 178.454 367.124 187.267 356.358 C 184.666 357.539 178.176 360.349 175.444 360.83 C 159.571 363.627 143.633 365.951 127.67 368.396 C 115.473 370.264 102.461 372.495 90.195 373.681 C 84.5144 374.23 77.3529 366.867 73.3301 363.364 C 71.9693 362.179 68.9278 358.888 68.0418 357.188 C 57.847 337.622 48.3802 317.555 38.4538 297.858 C 31.9657 284.696 25.2721 271.198 18.8704 258.042 C 16.0212 252.187 4.19615 231.634 4.11286 226.516 z"/>
<path fill="#349505" d="M 130.155 180.48 C 131.069 180.446 131.983 180.435 132.897 180.446 C 137.727 180.474 158.757 183.101 160.998 185.762 C 178.694 206.883 189.817 236.921 207.395 258.017 C 217.304 269.909 252.213 274.608 266.98 278.807 C 294.595 286.66 317.062 290.677 345.576 290.73 C 348.092 316.174 346.793 350.913 346.189 377.369 C 326.926 365.432 298.356 350.557 277.956 339.886 C 199.02 294.469 108.521 249.405 28.7434 203.728 C 27.4763 203.003 26.3748 201.395 25.9055 199.97 L 26.9872 198.902 C 27.9849 199.041 29.0263 199.115 30.0117 199.309 C 36.7468 200.634 113.718 182.098 130.155 180.48 z"/>
<path fill="#66CB34" d="M 162.408 14.0564 C 167.902 15.8866 179.961 31.8265 184.61 37.2027 L 224.173 82.9333 L 345.957 223.473 C 346.715 234.034 346.424 257.041 345.938 267.746 C 317.3 258.725 280.73 251.193 253.865 241.628 C 248.067 240.545 233.105 236.97 228.243 234.525 C 227.617 232.243 227.536 233.181 228.583 231.004 C 236.065 226.866 278.027 214.926 287.874 211.984 C 271.579 209.956 235.927 213.71 217.166 214.666 C 210.909 203.059 204.943 191.921 198.07 180.639 C 218.579 175.601 240.737 171.576 260.665 166.126 C 239.023 161.023 202.976 155.27 181.659 147.175 C 177.755 144.242 173.58 133.887 172.965 129.868 C 167.169 91.9977 167.735 51.8074 162.408 14.0564 z"/>
<path fill="#66CB34" d="M 186.303 0 L 191.402 0 C 192.42 1.06927 194.332 2.78641 195.828 3.04509 C 220.424 7.29637 246.307 11.0301 270.556 16.6571 C 276.53 18.0434 305.049 35.4208 309.628 39.6494 C 313.607 48.3378 310.791 91.4013 309.549 101.987 L 310.384 102.603 C 318.742 98.0308 326.17 67.262 334.42 56.5025 C 339.38 53.9217 341.463 57.7267 345.495 60.0344 C 357.487 66.8992 360.689 68.3317 366.99 80.7794 C 365.298 85.7315 354.366 113.963 354.734 116.35 C 358.944 116.685 372.834 103.569 377.072 99.9584 C 378.627 103.243 383.465 112.429 383.547 115.435 C 383.795 124.487 367.856 134.411 361.383 142.246 C 347.968 158.484 345.489 173.356 346.907 193.762 C 341.758 189.274 331.069 175.659 326.288 169.897 L 289.194 125.313 L 222.448 45.2445 C 215.742 37.2383 189.992 7.76302 186.303 0 z"/>
</svg>
