<svg xmlns="http://www.w3.org/2000/svg" viewBox="0 0 1200 96" preserveAspectRatio="none"><path d="M 0 60 L 1200 60 L 1200 96 L 0 96 Z M -104.8 60.0 C -104.8 36.2 -55.6 15.3 -20.0 12.4 C 15.6 15.3 64.8 36.2 64.8 60.0 Z M -23.9 60.0 C -23.9 35.9 13.7 14.7 41.0 11.8 C 68.3 14.7 106.0 35.9 106.0 60.0 Z M 20.4 60.0 C 20.4 37.1 73.4 17.0 111.8 14.3 C 150.2 17.0 203.3 37.1 203.3 60.0 Z M 92.5 60.0 C 92.5 34.0 145.1 11.1 183.1 8.0 C 221.2 11.1 273.7 34.0 273.7 60.0 Z M 163.7 60.0 C 163.7 32.8 205.6 8.8 235.9 5.6 C 266.3 8.8 308.2 32.8 308.2 60.0 Z M 200.2 60.0 C 200.2 38.0 256.8 18.6 297.9 16.0 C 338.9 18.6 395.6 38.0 395.6 60.0 Z M 262.4 60.0 C 262.4 34.1 314.7 11.3 352.6 8.2 C 390.5 11.3 442.9 34.1 442.9 60.0 Z M 358.8 60.0 C 358.8 41.3 397.4 24.8 425.4 22.5 C 453.3 24.8 491.9 41.3 491.9 60.0 Z M 424.3 60.0 C 424.3 40.8 459.6 23.9 485.1 21.6 C 510.7 23.9 545.9 40.8 545.9 60.0 Z M 471.5 60.0 C 471.5 35.0 513.5 13.1 544.0 10.1 C 574.4 13.1 616.4 35.0 616.4 60.0 Z M 556.3 60.0 C 556.3 40.2 593.0 22.7 619.7 20.4 C 646.3 22.7 683.1 40.2 683.1 60.0 Z M 597.8 60.0 C 597.8 41.7 642.5 25.7 674.8 23.5 C 707.1 25.7 751.7 41.7 751.7 60.0 Z M 683.6 60.0 C 683.6 42.3 721.2 26.7 748.5 24.6 C 775.8 26.7 813.4 42.3 813.4 60.0 Z M 726.1 60.0 C 726.1 36.5 774.9 15.8 810.3 13.0 C 845.7 15.8 894.5 36.5 894.5 60.0 Z M 801.5 60.0 C 801.5 32.5 837.5 8.3 863.6 5.0 C 889.7 8.3 925.7 32.5 925.7 60.0 Z M 848.2 60.0 C 848.2 41.4 893.9 25.1 927.0 22.9 C 960.1 25.1 1005.8 41.4 1005.8 60.0 Z M 926.5 60.0 C 926.5 35.7 963.3 14.4 989.9 11.4 C 1016.6 14.4 1053.4 35.7 1053.4 60.0 Z M 981.6 60.0 C 981.6 34.0 1023.9 11.1 1054.6 8.0 C 1085.2 11.1 1127.5 34.0 1127.5 60.0 Z M 1030.8 60.0 C 1030.8 40.1 1076.9 22.6 1110.2 20.2 C 1143.6 22.6 1189.7 40.1 1189.7 60.0 Z M 1077.5 60.0 C 1077.5 40.9 1132.4 24.1 1172.2 21.8 C 1212.0 24.1 1266.9 40.9 1266.9 60.0 Z M 1136.9 60.0 C 1136.9 35.8 1189.8 14.5 1228.2 11.6 C 1266.5 14.5 1319.5 35.8 1319.5 60.0 Z " fill="#222222"/></svg>